<svg width="64" height="64" viewBox="0 0 64 64" fill="none" xmlns="http://www.w3.org/2000/svg">
<path d="M32 8C18.7437 8 8 18.7437 8 32V54.5C8 55.3312 8.66875 56 9.5 56H21C23.2063 56 25 54.2062 25 52V39C25 36.7938 23.2063 35 21 35H12.5V32C12.5 21.2312 21.2312 12.5 32 12.5C42.7687 12.5 51.5 21.2312 51.5 32V35H43C40.7938 35 39 36.7938 39 39V52C39 54.2062 40.7938 56 43 56H54.5C55.3312 56 56 55.3312 56 54.5V32C56 18.7437 45.2562 8 32 8ZM20.5 39.5V51.5H12.5V39.5H20.5ZM51.5 51.5H43.5V39.5H51.5V51.5Z" fill="black"/>
</svg>
