<svg width="56" height="44" viewBox="0 0 56 44" fill="none" xmlns="http://www.w3.org/2000/svg">
<path d="M55.84 21.22L49.84 7.22C49.6869 6.8585 49.4308 6.55006 49.1036 6.33312C48.7764 6.11617 48.3926 6.00032 48 6H42V2C42 1.46957 41.7893 0.96086 41.4142 0.585787C41.0391 0.210714 40.5304 0 40 0H2C1.46957 0 0.960859 0.210714 0.585786 0.585787C0.210714 0.96086 0 1.46957 0 2V36C0 36.5304 0.210714 37.0391 0.585786 37.4142C0.960859 37.7893 1.46957 38 2 38H6.28C6.74056 39.6947 7.746 41.1908 9.14119 42.2575C10.5364 43.3241 12.2438 43.902 14 43.902C15.7562 43.902 17.4636 43.3241 18.8588 42.2575C20.254 41.1908 21.2594 39.6947 21.72 38H34.28C34.7406 39.6947 35.746 41.1908 37.1412 42.2575C38.5364 43.3241 40.2438 43.902 42 43.902C43.7562 43.902 45.4636 43.3241 46.8588 42.2575C48.254 41.1908 49.2594 39.6947 49.72 38H54C54.5304 38 55.0391 37.7893 55.4142 37.4142C55.7893 37.0391 56 36.5304 56 36V22C55.9995 21.7319 55.9451 21.4666 55.84 21.22ZM42 10H46.68L50.96 20H42V10ZM14 40C13.2089 40 12.4355 39.7654 11.7777 39.3259C11.1199 38.8863 10.6072 38.2616 10.3045 37.5307C10.0017 36.7998 9.92252 35.9956 10.0769 35.2196C10.2312 34.4437 10.6122 33.731 11.1716 33.1716C11.731 32.6122 12.4437 32.2312 13.2196 32.0769C13.9956 31.9225 14.7998 32.0017 15.5307 32.3045C16.2616 32.6072 16.8864 33.1199 17.3259 33.7777C17.7654 34.4355 18 35.2089 18 36C18 37.0609 17.5786 38.0783 16.8284 38.8284C16.0783 39.5786 15.0609 40 14 40ZM34.28 34H21.72C21.2594 32.3053 20.254 30.8092 18.8588 29.7425C17.4636 28.6759 15.7562 28.098 14 28.098C12.2438 28.098 10.5364 28.6759 9.14119 29.7425C7.746 30.8092 6.74056 32.3053 6.28 34H4V4H38V29.12C37.0893 29.6486 36.2919 30.3517 35.6535 31.1892C35.0152 32.0266 34.5484 32.9818 34.28 34ZM42 40C41.2089 40 40.4355 39.7654 39.7777 39.3259C39.1199 38.8863 38.6072 38.2616 38.3045 37.5307C38.0017 36.7998 37.9225 35.9956 38.0769 35.2196C38.2312 34.4437 38.6122 33.731 39.1716 33.1716C39.731 32.6122 40.4437 32.2312 41.2196 32.0769C41.9956 31.9225 42.7998 32.0017 43.5307 32.3045C44.2616 32.6072 44.8864 33.1199 45.3259 33.7777C45.7654 34.4355 46 35.2089 46 36C46 37.0609 45.5786 38.0783 44.8284 38.8284C44.0783 39.5786 43.0609 40 42 40ZM52 34H49.72C49.2777 32.287 48.2801 30.769 46.8833 29.6834C45.4864 28.5977 43.7691 28.0057 42 28V24H52V34Z" fill="black"/>
</svg>
